name analog
datacolumns 19
datarows 32
range 0.1635 0.179
endheader
time	ground_force_vx	ground_force_vy	ground_force_vz	ground_force_px	ground_force_py	ground_force_pz	l_ground_force_vx	l_ground_force_vy	l_ground_force_vz	l_ground_force_px	l_ground_force_py	l_ground_force_pz	ground_torque_x	ground_torque_y	ground_torque_z	l_ground_torque_x	l_ground_torque_y	l_ground_torque_z
0.1635	-0.0	-0.0	-0.0	12.41946792602539	16.973155975341797	-346.42047119140625	2.867295742034912	-23.219127655029297	-367.5068359375	-0.0	-0.0	-0.0	-0.0	-0.0	-0.0	95966.2734375	-9953.2060546875	-3629.236328125
0.164	-0.0	-0.0	-0.0	12.113296508789062	18.204126358032227	-348.3119506835937	3.481372594833374	-22.443246841430664	-366.3354797363281	-0.0	-0.0	-0.0	-0.0	-0.0	-0.0	95840.0703125	-9894.5859375	-3470.714111328125
0.1645	-0.0	-0.0	-0.0	11.87474250793457	18.163129806518555	-350.8293762207031	4.001642227172852	-22.09965133666992	-366.7683410644531	-0.0	-0.0	-0.0	-0.0	-0.0	-0.0	96012.234375	-10202.0751953125	-3331.5986328125
0.165	-0.0	-0.0	-0.0	11.825738906860352	17.9642391204834	-352.907958984375	4.504796028137207	-21.57954406738281	-365.36572265625	-0.0	-0.0	-0.0	-0.0	-0.0	-0.0	95527.5546875	-9967.34375	-3186.087646484375
0.1655	-0.0	-0.0	-0.0	10.655561447143556	18.113208770751957	-352.12042236328125	4.603171348571777	-21.697895050048828	-365.910888671875	-0.0	-0.0	-0.0	-0.0	-0.0	-0.0	95167.5234375	-9851.9208984375	-3034.51708984375
0.166	-0.0	-0.0	-0.0	10.556706428527832	17.746896743774414	-353.2587585449219	4.859359264373779	-21.148178100585938	-364.7857971191406	-0.0	-0.0	-0.0	-0.0	-0.0	-0.0	95129.2265625	-9708.908203125	-3024.34814453125
0.1665	-0.0	-0.0	-0.0	9.882328987121582	17.79701042175293	-353.1044311523437	5.026724338531494	-20.588838577270508	-364.89990234375	-0.0	-0.0	-0.0	-0.0	-0.0	-0.0	94996.03125	-9608.935546875	-2790.29541015625
0.167	-0.0	-0.0	-0.0	8.880690574645996	17.886568069458008	-356.2786865234375	4.780381202697754	-19.058862686157227	-364.3174743652344	-0.0	-0.0	-0.0	-0.0	-0.0	-0.0	95123.3671875	-9474.234375	-3010.4521484375
0.1675	-0.0	-0.0	-0.0	7.891193389892578	18.518808364868164	-356.3183288574219	4.760149955749512	-18.900840759277344	-363.5858459472656	-0.0	-0.0	-0.0	-0.0	-0.0	-0.0	95238.640625	-9236.2421875	-2974.55908203125
0.168	-0.0	-0.0	-0.0	7.037399291992188	18.82695770263672	-356.35858154296875	4.159265995025635	-18.381006240844727	-362.41937255859375	-0.0	-0.0	-0.0	-0.0	-0.0	-0.0	94995.875	-9218.201171875	-3235.09130859375
0.1685	-0.0	-0.0	-0.0	5.819300651550293	19.252166748046875	-358.1244506835937	3.3129537105560303	-18.819454193115234	-363.856201171875	-0.0	-0.0	-0.0	-0.0	-0.0	-0.0	95277.4296875	-8877.5302734375	-3364.7109375
0.169	-0.0	-0.0	-0.0	5.22190523147583	19.42005729675293	-357.5002746582031	2.050635814666748	-18.625633239746094	-361.77685546875	-0.0	-0.0	-0.0	-0.0	-0.0	-0.0	95237.2890625	-8958.9443359375	-3908.60498046875
0.1695	-0.0	-0.0	-0.0	4.7490410804748535	19.06347274780273	-358.4965209960937	1.3410125970840454	-19.07748413085937	-364.2059020996094	-0.0	-0.0	-0.0	-0.0	-0.0	-0.0	94957.0625	-8541.7275390625	-4071.326171875
0.17	-0.0	-0.0	-0.0	4.728157043457031	19.24165725708008	-358.830810546875	0.3235588669776916	-18.98916244506836	-363.46685791015625	-0.0	-0.0	-0.0	-0.0	-0.0	-0.0	95138.3515625	-8280.2646484375	-4318.107421875
0.1705	-0.0	-0.0	-0.0	4.517966747283936	18.9953556060791	-360.3692932128906	-0.4435539245605469	-19.26457977294922	-362.9937133789063	-0.0	-0.0	-0.0	-0.0	-0.0	-0.0	95009.578125	-8172.13037109375	-4495.009765625
0.171	-0.0	-0.0	-0.0	4.103683471679688	18.95951461791992	-360.2435302734375	-1.0539673566818235	-19.300386428833008	-361.4966430664063	-0.0	-0.0	-0.0	-0.0	-0.0	-0.0	94672.5859375	-8075.94091796875	-4756.83984375
0.1715	-0.0	-0.0	-0.0	4.078855037689209	19.843917846679688	-360.8091430664063	-1.7103904485702517	-18.724197387695312	-362.9501953125	-0.0	-0.0	-0.0	-0.0	-0.0	-0.0	94618.0	-7746.26953125	-4800.87548828125
0.17200000000000001	-0.0	-0.0	-0.0	4.182100296020508	19.67339324951172	-360.7676696777344	-2.1504602432250977	-18.501848220825195	-361.5526123046875	-0.0	-0.0	-0.0	-0.0	-0.0	-0.0	94388.2890625	-7459.08837890625	-4974.4365234375
0.17250000000000001	-0.0	-0.0	-0.0	3.846923589706421	19.59782600402832	-361.3031005859375	-2.6182117462158203	-18.879379272460938	-360.8106689453125	-0.0	-0.0	-0.0	-0.0	-0.0	-0.0	94252.71875	-7324.65869140625	-5060.35595703125
0.17300000000000001	-0.0	-0.0	-0.0	3.333616018295288	19.19583320617676	-358.7375793457031	-3.351237297058105	-18.282588958740234	-359.01324462890625	-0.0	-0.0	-0.0	-0.0	-0.0	-0.0	93748.2421875	-7045.07080078125	-5023.23486328125
0.17350000000000002	-0.0	-0.0	-0.0	2.888918399810791	18.80535125732422	-359.0097351074219	-3.4815433025360107	-18.60328483581543	-358.3154296875	-0.0	-0.0	-0.0	-0.0	-0.0	-0.0	93607.96875	-6791.3095703125	-5150.02685546875
0.17400000000000002	-0.0	-0.0	-0.0	2.1072587966918945	19.50848388671875	-355.96148681640625	-3.7368416786193848	-18.050445556640625	-356.0914001464844	-0.0	-0.0	-0.0	-0.0	-0.0	-0.0	93279.28125	-6427.60791015625	-5101.83984375
0.17450000000000002	-0.0	-0.0	-0.0	1.5723495483398438	19.66440963745117	-353.79803466796875	-3.8366665840148926	-18.006322860717773	-357.4442443847656	-0.0	-0.0	-0.0	-0.0	-0.0	-0.0	93195.34375	-6513.05908203125	-5417.3447265625
0.17500000000000002	-0.0	-0.0	-0.0	0.8477420210838318	19.79815101623535	-354.5482788085937	-4.014217853546143	-17.58708381652832	-355.6980285644531	-0.0	-0.0	-0.0	-0.0	-0.0	-0.0	92964.484375	-6327.03662109375	-5313.4677734375
0.17550000000000002	-0.0	-0.0	-0.0	0.3794175982475281	19.94265556335449	-354.90118408203125	-4.313252925872803	-17.079513549804688	-354.8261413574219	-0.0	-0.0	-0.0	-0.0	-0.0	-0.0	92861.8984375	-6140.11865234375	-5246.9892578125
0.176	-0.0	-0.0	-0.0	-0.4006178081035614	20.28768539428711	-354.8175048828125	-4.346828460693359	-16.747482299804688	-354.61053466796875	-0.0	-0.0	-0.0	-0.0	-0.0	-0.0	92455.890625	-5800.38232421875	-5195.25048828125
0.1765	-0.0	-0.0	-0.0	-0.3476862907409668	19.67496681213379	-355.60693359375	-4.435539245605469	-16.604476928710938	-354.56744384765625	-0.0	-0.0	-0.0	-0.0	-0.0	-0.0	92908.859375	-5906.82177734375	-5135.45947265625
0.177	-0.0	-0.0	-0.0	-0.1007169038057327	19.686323165893555	-356.8827209472656	-3.9577577114105225	-16.37358856201172	-353.0821228027344	-0.0	-0.0	-0.0	-0.0	-0.0	-0.0	92466.71875	-5888.21484375	-5142.66845703125
0.1775	-0.0	-0.0	-0.0	-0.8342552185058594	19.53446388244629	-355.83544921875	-3.880329608917236	-16.17428970336914	-354.738037109375	-0.0	-0.0	-0.0	-0.0	-0.0	-0.0	92686.8515625	-5782.21533203125	-4976.107421875
0.178	-0.0	-0.0	-0.0	-1.3032145500183103	19.94193458557129	-355.6679077148437	-3.3941092491149902	-16.351011276245117	-353.2959899902344	-0.0	-0.0	-0.0	-0.0	-0.0	-0.0	92637.984375	-5609.1572265625	-4809.51318359375
0.1785	-0.0	-0.0	-0.0	-1.314722180366516	19.779769897460938	-357.1397399902344	-3.193588256835937	-16.427833557128906	-351.2922668457031	-0.0	-0.0	-0.0	-0.0	-0.0	-0.0	92270.5546875	-5540.31396484375	-4790.1259765625
0.179	-0.0	-0.0	-0.0	-2.1528351306915283	20.01229858398437	-354.1195373535156	-3.3359575271606445	-16.074546813964844	-353.5526428222656	-0.0	-0.0	-0.0	-0.0	-0.0	-0.0	92138.0234375	-5373.01123046875	-4724.6298828125
